<?xml version="1.0" standalone="no"?>
<!DOCTYPE svg PUBLIC "-//W3C//DTD SVG 20010904//EN"
 "http://www.w3.org/TR/2001/REC-SVG-20010904/DTD/svg10.dtd">
<svg version="1.0" xmlns="http://www.w3.org/2000/svg"
 width="960.000000pt" height="960.000000pt" viewBox="0 0 960.000000 960.000000"
 preserveAspectRatio="xMidYMid meet">
<metadata>
Created by potrace 1.14, written by Peter Selinger 2001-2017
</metadata>
<g transform="translate(0.000000,960.000000) scale(0.100000,-0.100000)"
fill="#000000" stroke="none">
<path d="M2190 6196 c-424 -66 -791 -313 -1012 -681 -81 -134 -133 -274 -169
-450 -29 -140 -31 -371 -5 -515 103 -572 555 -1032 1118 -1139 149 -28 265
-34 418 -22 171 14 280 40 395 95 107 51 207 114 203 127 -4 13 -260 269 -269
269 -3 0 -32 -11 -64 -25 -140 -62 -387 -91 -556 -65 -409 63 -731 353 -839
755 -28 103 -37 296 -20 402 53 334 253 609 552 759 263 132 558 143 843 31
44 -18 83 -32 87 -32 4 0 71 63 148 139 163 161 161 139 16 212 -100 51 -263
108 -369 130 -102 21 -372 26 -477 10z"/>
<path d="M2680 5355 l-565 -565 138 -137 138 -137 565 565 564 564 -138 138
-137 137 -565 -565z"/>
<path d="M5025 5706 c-164 -42 -267 -174 -267 -341 1 -139 74 -254 197 -312
53 -25 71 -28 155 -28 85 1 101 4 153 30 119 59 187 172 187 308 0 87 -12 134
-51 198 -71 115 -238 180 -374 145z m124 -147 c161 -34 188 -301 37 -370 -90
-41 -190 -10 -234 72 -20 37 -23 55 -20 120 3 64 7 81 31 112 30 40 55 56 102
68 17 4 31 7 32 8 1 1 25 -4 52 -10z"/>
<path d="M4235 5692 c-142 -49 -223 -182 -213 -351 10 -160 106 -276 257 -311
66 -16 166 -7 224 18 77 34 156 119 173 186 l6 26 -89 0 c-86 0 -90 -1 -110
-28 -67 -91 -217 -76 -270 27 -49 94 -23 225 56 278 62 42 163 27 209 -32 19
-23 25 -25 112 -25 90 0 91 0 85 23 -14 43 -67 117 -108 147 -23 17 -64 37
-91 45 -66 20 -179 18 -241 -3z"/>
<path d="M5550 5370 l0 -340 80 0 80 0 0 200 c0 110 3 200 8 200 4 -1 66 -91
137 -200 l130 -200 83 0 82 0 0 340 0 340 -80 0 -80 0 0 -212 0 -213 -140 213
-140 212 -80 0 -80 0 0 -340z"/>
<path d="M6240 5640 l0 -70 90 0 90 0 0 -270 0 -270 83 0 82 0 -3 270 -3 269
93 3 93 3 0 65 0 65 -262 3 -263 2 0 -70z"/>
<path d="M6850 5370 l0 -340 205 0 205 0 0 65 0 65 -125 0 -125 0 0 75 0 75
115 0 116 0 -3 63 -3 62 -112 3 -113 3 0 64 0 65 125 0 125 0 0 70 0 70 -205
0 -205 0 0 -340z"/>
<path d="M7377 5703 c-4 -3 -7 -156 -7 -340 l0 -333 85 0 85 0 2 203 3 202
134 -202 133 -203 84 0 84 0 0 340 0 340 -80 0 -80 0 -2 -212 -3 -213 -139
213 -140 212 -76 0 c-42 0 -80 -3 -83 -7z"/>
<path d="M8064 5696 c-3 -7 -4 -38 -2 -67 l3 -54 88 -3 87 -3 0 -269 0 -270
85 0 85 0 0 270 0 270 90 0 90 0 0 70 0 70 -260 0 c-211 0 -262 -3 -266 -14z"/>
<path d="M3004 4828 l-29 -33 33 29 c30 28 37 36 29 36 -2 0 -16 -15 -33 -32z"/>
<path d="M2939 4763 c-13 -16 -12 -17 4 -4 16 13 21 21 13 21 -2 0 -10 -8 -17
-17z"/>
<path d="M3449 4753 c-13 -16 -12 -17 4 -4 16 13 21 21 13 21 -2 0 -10 -8 -17
-17z"/>
<path d="M6891 4620 c-107 -22 -203 -98 -249 -198 -21 -47 -26 -72 -26 -142 0
-72 4 -94 28 -146 33 -73 91 -132 166 -171 49 -24 66 -28 150 -28 82 0 103 4
151 26 72 34 134 96 168 168 22 48 26 69 26 151 -1 114 -19 163 -89 238 -78
83 -211 125 -325 102z m159 -165 c109 -55 122 -253 22 -337 -65 -54 -171 -49
-232 12 -106 106 -62 309 72 338 49 10 101 5 138 -13z"/>
<path d="M4087 4614 c-4 -4 -7 -157 -7 -341 l0 -333 85 0 85 0 0 135 0 135
105 0 105 0 0 65 0 65 -105 0 -105 0 0 70 0 69 138 3 137 3 0 65 0 65 -216 3
c-118 1 -218 -1 -222 -4z"/>
<path d="M4816 4611 c-3 -5 -44 -116 -91 -247 -48 -132 -101 -281 -120 -331
l-33 -93 87 0 86 0 20 58 20 57 126 3 126 3 20 -58 19 -58 88 -3 c69 -2 87 0
84 10 -2 7 -58 160 -123 341 l-118 327 -93 0 c-51 0 -95 -4 -98 -9z m137 -300
c21 -60 37 -114 37 -120 0 -7 -30 -11 -80 -11 -44 0 -80 3 -80 7 0 16 75 233
81 233 3 0 22 -49 42 -109z"/>
<path d="M5538 4611 c-152 -49 -231 -164 -232 -336 -1 -83 2 -96 32 -157 37
-76 83 -120 162 -157 76 -35 210 -37 285 -3 59 27 129 92 156 144 33 64 30 68
-65 68 l-84 0 -39 -39 c-65 -65 -154 -68 -222 -5 -94 84 -75 277 32 327 72 35
177 13 207 -42 10 -19 20 -21 100 -21 101 0 102 2 69 65 -29 56 -72 98 -132
131 -45 25 -64 29 -147 31 -52 1 -107 -1 -122 -6z"/>
<path d="M6030 4550 l0 -70 90 0 90 0 0 -270 0 -270 85 0 85 0 2 271 3 271 85
2 85 1 3 68 3 67 -266 0 -265 0 0 -70z"/>
<path d="M7408 4614 c-5 -4 -8 -157 -8 -341 l0 -333 85 0 85 0 0 126 c0 122 1
125 21 122 16 -2 39 -35 88 -125 l66 -121 93 -4 c50 -1 92 0 92 4 0 4 -34 64
-75 134 -42 70 -74 127 -73 128 41 16 90 53 113 86 27 37 30 50 30 114 0 92
-27 137 -106 181 -53 29 -57 30 -229 33 -96 2 -178 1 -182 -4z m333 -163 c11
-14 19 -39 19 -61 0 -58 -33 -80 -121 -80 l-69 0 0 86 0 86 76 -4 c65 -3 79
-7 95 -27z"/>
<path d="M7990 4610 c0 -6 52 -111 115 -234 l115 -223 0 -107 0 -106 80 0 80
0 0 106 0 107 66 131 c37 72 89 172 115 223 27 51 49 97 49 103 0 6 -34 10
-89 10 l-88 0 -63 -140 c-35 -77 -66 -140 -69 -140 -3 1 -35 64 -70 140 l-64
140 -88 0 c-55 0 -89 -4 -89 -10z"/>
<path d="M3289 4593 c-13 -16 -12 -17 4 -4 16 13 21 21 13 21 -2 0 -10 -8 -17
-17z"/>
<path d="M2699 4523 c-13 -16 -12 -17 4 -4 9 7 17 15 17 17 0 8 -8 3 -21 -13z"/>
<path d="M3144 4448 l-29 -33 33 29 c17 17 32 31 32 33 0 8 -8 1 -36 -29z"/>
<path d="M2984 4288 l-29 -33 33 29 c30 28 37 36 29 36 -2 0 -16 -15 -33 -32z"/>
<path d="M3125 4107 c-85 -85 -155 -156 -155 -159 0 -3 234 -239 266 -268 2
-2 77 68 164 155 l160 160 -132 132 c-73 73 -136 133 -140 133 -4 0 -78 -69
-163 -153z"/>
<path d="M2904 4208 l-29 -33 33 29 c17 17 32 31 32 33 0 8 -8 1 -36 -29z"/>
</g>
</svg>
