<?xml version="1.0" standalone="yes"?>
<svg xmlns="http://www.w3.org/2000/svg" width="866" height="420">
<path style="fill:#010101; stroke:none;" d="M0 0L0 420L2 420L2 0L0 0z"/>
<path style="fill:#feffff; stroke:none;" d="M2 0L2 420L864 420L864 0L2 0z"/>
<path style="fill:#010101; stroke:none;" d="M864 0L864 420L866 420L866 0L864 0z"/>
<path style="fill:#69a1a7; stroke:none;" d="M204 93L204 94L230 94L204 93M196 94L196 95L202 95L196 94z"/>
<path style="fill:#056e79; stroke:none;" d="M284 327L284 326C278.101 320.101 268.299 305.621 260 303.816C253.387 302.378 241.112 309.627 234 310.725C215.104 313.644 196.536 311.345 179 303.561C112.758 274.158 107.75 176.798 171 141.309C189.774 130.775 210.659 126.199 232 129.755C239.863 131.065 252.634 139.132 260 138.006C267.584 136.847 281.893 119.663 285 113C263.307 100.327 241.106 94 216 94C194.548 94 173.736 99.0667 155 109.719C94.1781 144.299 72.7365 223.394 107.427 284C140.569 341.898 228.19 369.899 284 327z"/>
<path style="fill:#69a1a7; stroke:none;" d="M232 94L232 95L237 95L232 94M191 95L191 96L195 96L191 95M239 95L239 96L243 96L239 95M187 96L187 97L190 97L187 96M244 96L244 97L247 97L244 96M184.667 97.3333L185.333 97.6667L184.667 97.3333M249 97L250 98L249 97M180.667 98.3333L181.333 98.6667L180.667 98.3333M252.667 98.3333L253.333 98.6667L252.667 98.3333M177.667 99.3333L178.333 99.6667L177.667 99.3333M255 99L255 100L258 100L255 99M174.667 100.333L175.333 100.667L174.667 100.333M258 100L258 101L261 101L258 100M171.667 101.333L172.333 101.667L171.667 101.333M261.667 101.333L262.333 101.667L261.667 101.333M169.667 102.333L170.333 102.667L169.667 102.333M264.667 102.333L265.333 102.667L264.667 102.333M166.667 103.333L167.333 103.667L166.667 103.333M266.667 103.333L267.333 103.667L266.667 103.333M164.667 104.333L165.333 104.667L164.667 104.333M269 104L270 105L269 104M162 105L163 106L162 105M271 105L272 106L271 105M160 106L161 107L160 106M273 106L274 107L273 106M158 107L159 108L158 107M275 107L276 108L275 107M156.667 108.333L157.333 108.667L156.667 108.333M276.667 108.333L277.333 108.667L276.667 108.333M154.667 109.333L155.333 109.667L154.667 109.333M278.667 109.333L279.333 109.667L278.667 109.333M153 110L154 111L153 110M280.667 110.333L281.333 110.667L280.667 110.333M151 111L152 112L151 111M282 111L283 112L282 111M149.667 112.333L150.333 112.667L149.667 112.333M284 112L285 113L284 112M148 113L149 114L148 113M285.333 113.667L285.667 114.333L285.333 113.667M146 114L147 115L146 114M145 115L146 116L145 115M284 115L285 116L284 115M143.667 116.333L144.333 116.667L143.667 116.333M283 116L284 117L283 116M142 117L143 118L142 117M282 117L283 118L282 117M141 118L142 119L141 118M281 118L282 119L281 118M139.667 119.333L140.333 119.667L139.667 119.333M280 119L281 120L280 119M293 119L250 162L222 190L200 212C197.778 214.227 193.207 217.497 193.207 221C193.207 225.634 201.015 231.015 204 234C206.938 236.938 212.269 244.637 217 244.079C224.2 243.229 234.039 228.961 239 224L295 168C299.84 163.16 316.793 151.109 316.793 144C316.793 140.83 313.007 138.023 310.999 136C305.247 130.205 299.684 123.708 293 119M138 120L139 121L138 120M279 120L280 121L279 120z"/>
<path style="fill:#056e79; stroke:none;" d="M293 120L251 162L223 190L201 212C198.778 214.227 194.207 217.497 194.207 221C194.207 225.626 201.871 230.837 204.91 233.715C207.843 236.491 212.417 243.62 217 243.079C224.2 242.229 234.039 227.961 239 223L295 167C299.677 162.323 315.793 150.898 315.793 144C315.793 137.063 298.372 123.784 293 120z"/>
<path style="fill:#69a1a7; stroke:none;" d="M137 121L138 122L137 121M278 121L279 122L278 121M136 122L137 123L136 122M277 122L278 123L277 122M134 123L135 124L134 123M276 123L277 124L276 123M133 124L134 125L133 124M275 124L276 125L275 124M132 125L133 126L132 125M274 125L275 126L274 125M131 126L132 127L131 126M273 126L274 127L273 126M130 127L131 128L130 127M272 127L273 128L272 127M129 128L130 129L129 128M213 128L213 129L221 129L213 128M271 128L272 129L271 128M128 129L129 130L128 129M203 129L203 130L210 130L203 129M225 129L225 130L231 130L225 129M270 129L271 130L270 129M127 130L128 131L127 130M198 130L198 131L202 131L198 130M233 130L233 131L237 131L233 130M269 130L270 131L269 130M126 131L127 132L126 131M194 131L194 132L197 132L194 131M238.667 131.333L239.333 131.667L238.667 131.333M268 131L269 132L268 131M125 132L126 133L125 132M190 132L190 133L193 133L190 132M242.667 132.333L243.333 132.667L242.667 132.333M267 132L268 133L267 132M124 133L125 134L124 133M187.667 133.333L188.333 133.667L187.667 133.333M245.667 133.333L246.333 133.667L245.667 133.333M266 133L267 134L266 133M123 134L124 135L123 134M185.667 134.333L186.333 134.667L185.667 134.333M248.667 134.333L249.333 134.667L248.667 134.333M265 134L266 135L265 134M122 135L123 136L122 135M182.667 135.333L183.333 135.667L182.667 135.333M250 135L250 136L253 136L250 135M264 135L265 136L264 135M121 136L122 137L121 136M179 136L179 137L182 137L179 136M253.667 136.333L254.333 136.667L253.667 136.333M263 136L264 137L263 136M120 137L121 138L120 137M177.667 137.333L178.333 137.667L177.667 137.333M255.667 137.333L256.333 137.667L255.667 137.333M262 137L263 138L262 137M390 137L390 138L397 138L390 137M456 137L456 138L469 139L456 137M119.333 138.667L119.667 139.333L119.333 138.667M176 138L177 139L176 138M257.667 138.333L258.333 138.667L257.667 138.333M261 138L262 139L261 138M385 138L385 139L389 139L385 138z"/>
<path style="fill:#056e79; stroke:none;" d="M422 179C417.58 179 411.426 177.897 407.285 179.603C401.303 182.067 398.484 187.895 391 186.645C374.914 183.959 373.443 159.869 387.004 153C396.302 148.291 399.64 155.247 407.285 158.397C411.426 160.103 417.58 159 422 159C412.375 125.653 363.008 135.469 363.008 169C363.008 202.597 412.397 212.334 422 179z"/>
<path style="fill:#69a1a7; stroke:none;" d="M398 138L398 139L402 139L398 138M452 138L452 139L455 139L452 138z"/>
<path style="fill:#056e79; stroke:none;" d="M455 138.465C415.147 145.647 426.275 206.547 466 199.384C505.352 192.289 494.491 131.347 455 138.465z"/>
<path style="fill:#69a1a7; stroke:none;" d="M500 140C515.403 136.333 519.345 146.652 527 158C526.693 148.633 509.467 129.166 500 140M540 138L540 139L554 139L554 199L539 199L539 200L555 200L555 138L540 138M562 141L563 141L577 139L609 139L609 150L593 150L593 199L579 199L579 164L577.397 151.028L562 150L562 151L578 151L578 200L592.397 198.972L594 186L594 151L610 151C610 147.973 611.173 141.852 609.278 139.333C606.038 135.029 585.307 138 580 138C575.423 138 563.136 135.7 562 141M617 138L617 139L654 139L654 150C649.282 150 635.173 147.632 632.028 151.603C629.953 154.223 631 159.855 631 163L651 163L651 174C636.801 174 631 172.206 631 188L654 188L654 199L616 198L616 199C624.28 201.448 634.393 200 643 200C645.91 200 650.948 200.912 653.397 198.972C656.05 196.871 655.836 189.156 652.682 187.603C647.546 185.076 637.676 187 632 187L632 175L652 175C652 159.821 645.333 162 632 162L632 151C637.676 151 647.546 152.924 652.682 150.397C656.085 148.722 656.085 140.278 652.682 138.603C644.31 134.484 626.346 138 617 138M664 138L664 139C674.919 139 678.69 139.65 685 149C684.615 137.252 672.411 138 664 138M703 174L702 174L699 168L698 168L704 176L704 139L718 139L718 199C710.158 199 704.883 199.918 700 193L699 193C703.188 201.697 710.541 200 719 200L719 138L704.603 139.028L703 148L703 174M726 138L726 149L727 149L727 139L773 139L773 150L757 150C760.517 151.476 768.123 152.148 771.682 150.397C774.836 148.844 775.05 141.129 772.397 139.028C769.615 136.825 763.328 138 760 138L726 138M174 139L175 140L174 139M259.667 139.333L260.333 139.667L259.667 139.333M382.667 139.333L383.333 139.667L382.667 139.333M403.667 139.333L404.333 139.667L403.667 139.333M449.667 139.333L450.333 139.667L449.667 139.333M470.667 139.333L471.333 139.667L470.667 139.333z"/>
<path style="fill:#056e79; stroke:none;" d="M500 199L515 199L515 163L532.003 188L540.326 198.397L554 199L554 139L540 139L540 176C531.724 166.29 525.6 146.583 514.674 140.028C511.732 138.262 502.385 137.698 500.603 141.318C498.514 145.564 500 153.347 500 158L500 199M562 150L577.397 151.603L579 164L579 199L593 199L593 150L609 150L609 139L576 139L563.742 140.028L562 150M617 139L617 199L654 199L654 188L631 188C631 172.585 637.341 174 651 174L651 163L631 163C631 147.008 640.692 150 654 150L654 139L617 139M664 139L664 199L679 199L679 163L696.003 188L704.326 198.397L718 199L718 139L704 139L704 176C695.799 166.355 689.461 146.5 678.674 140.028C674.894 137.759 668.264 139 664 139M727 139L726 150L741.258 151.603L743 164L742 199L757 199L757 150L773 150L773 139L727 139z"/>
<path style="fill:#69a1a7; stroke:none;" d="M118 140L119 141L118 140M172 140L173 141L172 140M380 140L381 141L380 140M406 140L407 141L406 140M447 140L448 141L447 140M473 140L474 141L473 140M117 141L118 142L117 141M170 141L171 142L170 141M378 141L379 142L378 141M408 141L409 142L408 141M445 141L446 142L445 141M475 141L476 142L475 141M116 142L117 143L116 142M168.667 142.333L169.333 142.667L168.667 142.333M376 142L377 143L376 142M410 142L411 143L410 142M443 142L444 143L443 142M477 142L478 143L477 142M167 143L168 144L167 143M374.667 143.333L375.333 143.667L374.667 143.333M411.667 143.333L412.333 143.667L411.667 143.333M441.667 143.333L442.333 143.667L441.667 143.333M478.667 143.333L479.333 143.667L478.667 143.333M115 144L116 145L115 144M165.667 144.333L166.333 144.667L165.667 144.333M373 144L374 145L373 144M413 144L414 145L413 144M440 144L441 145L440 144M480 144L481 145L480 144M114 145L115 146L114 145M164 145L165 146L164 145M372 145L373 146L372 145M414 145L415 146L414 145M439 145L440 146L439 145M481 145L482 146L481 145M113.333 146.667L113.667 147.333L113.333 146.667M163 146L164 147L163 146M371 146L372 147L371 146M415 146L416 147L415 146M438 146L439 147L438 146M482 146L483 147L482 146M161 147L162 148L161 147M370 147L371 148L370 147M416 147L417 148L416 147M437 147L438 148L437 147M483 147L484 148L483 147M112 148L113 149L112 148M160 148L161 149L160 148M369 148L370 149L369 148M417.333 148.667L417.667 149.333L417.333 148.667M436 148L437 149L436 148M484 148L485 149L484 148M562 148L563 149L562 148M111 149L112 150L111 149M159 149L160 150L159 149M368.333 149.667L368.667 150.333L368.333 149.667M435 149L436 150L435 149M485 149L486 150L485 149M156 152L159 150L156 152M418 150L419 151L418 150M686 150L687 151L686 150M726 150L726 151L742 151L726 150M110 151L111 152L110 151M367 151L368 152L367 151M390 151L390 152L397 152L390 151M419.333 151.667L419.667 152.333L419.333 151.667M434 151L435 152L434 151M456 151L456 152L465 152L456 151M486 151L487 152L486 151M687 151L688 152L687 151M109.333 152.667L109.667 153.333L109.333 152.667M155 152L156 153L155 152M366.333 152.667L366.667 153.333L366.333 152.667M387.667 152.333L388.333 152.667L387.667 152.333M397 152L397 153L400 153L397 152M433 152L434 153L433 152M444 174L445 174C445.001 164.79 446.104 157.628 455 153C444.473 151.598 444 167.134 444 174z"/>
<path style="fill:#feffff; stroke:none;" d="M455 152.653C435.962 158.632 445.295 192.658 465.999 185.513C484.921 178.983 475.796 146.122 455 152.653z"/>
<path style="fill:#69a1a7; stroke:none;" d="M466.667 152.333L467.333 152.667L466.667 152.333M487 152L488 153L487 152M742 152L742 198L743 198C743 184.997 747.01 163.939 742 152M154 153L155 154L154 153M385 153L386 154L385 153M400.667 153.333L401.333 153.667L400.667 153.333M420.333 153.667L420.667 154.333L420.333 153.667M468.667 153.333L469.333 153.667L468.667 153.333M688 153L689 154L688 153M108 154L109 155L108 154M153 154L154 155L153 154M365.333 154.667L365.667 155.333L365.333 154.667M384 154L385 155L384 154M402 154L403 155L402 154M432 154L433 155L432 154M470 154L471 155L470 154M488 154L489 155L488 154M689.333 154.667L689.667 155.333L689.333 154.667M107.333 155.667L107.667 156.333L107.333 155.667M152 155L153 156L152 155M382 155L381 158L382 155M403 155L404 156L403 155M421.333 155.667L421.667 156.333L421.333 155.667M431.333 155.667L431.667 156.333L431.333 155.667M471 155L472 156L471 155M489 155L489 158L490 158L489 155M151 156L152 157L151 156M404 156L405 157L404 156M472 156L473 157L472 156M690 156L691 157L690 156M106.333 157.667L106.667 158.333L106.333 157.667M150 157L151 158L150 157M364.333 157.667L364.667 158.333L364.333 157.667M405.333 157.667L405.667 158.333L405.333 157.667M473.333 157.667L473.667 158.333L473.333 157.667M691 157L692 158L691 157M149 158L150 159L149 158M380 158L381 159L380 158M422 158L423 159L422 158M430.333 158.667L430.667 159.333L430.333 158.667M490 158L490 162L491 162L490 158M105.333 159.667L105.667 160.333L105.333 159.667M148 159L149 160L148 159M406 159L406 160L422 160L406 159M474 159L475 160L474 159M528 159L529 160L528 159M692 159L693 160L692 159M147.333 160.667L147.667 161.333L147.333 160.667M363 160L363 163L364 163L363 160M379.333 160.667L379.667 161.333L379.333 160.667M529 160L530 161L529 160M693.333 160.667L693.667 161.333L693.333 160.667M104 161L105 162L104 161M429 161L429 167L430 167L429 161M475.333 161.667L475.667 162.333L475.333 161.667M146 162L147 163L146 162M378 162L378 165L379 165L378 162M491 162L491 176L492 176L491 162M530 162L531 163L530 162M694 162L695 163L694 162M103.333 163.667L103.667 164.333L103.333 163.667M145 163L146 164L145 163M515 163L515 165L517 165L515 163M531 163L532 164L531 163M679 163L680 164L679 163M695.333 163.667L695.667 164.333L695.333 163.667M144 164L145 165L144 164M680 164L681 165L680 164M102.333 165.667L102.667 166.333L102.333 165.667M476 165L476 173L477 173L476 165M517.333 165.667L517.667 166.333L517.333 165.667M532 165L533 166L532 165M681.333 165.667L681.667 166.333L681.333 165.667M696 165L697 166L696 165M143 166L144 167L143 166M515 166L516 167L515 166M533.333 166.667L533.667 167.333L533.333 166.667M697 166L698 167L697 166M101.333 167.667L101.667 168.333L101.333 167.667M142 167L143 168L142 167M377 167L377 171L378 171L377 167M518 167L519 168L518 167M682 167L683 168L682 167M141.333 168.667L141.667 169.333L141.333 168.667M428 168L429 169L428 168M534 168L535 169L534 168M683.333 168.667L683.667 169.333L683.333 168.667M100.333 169.667L100.667 170.333L100.333 169.667M519 169L520 170L519 169M535.333 169.667L535.667 170.333L535.333 169.667M140 170L141 171L140 170M520 170L521 171L520 170M684 170L685 171L684 170M99.3333 171.667L99.6667 172.333L99.3333 171.667M139.333 171.667L139.667 172.333L139.333 171.667M429 171L429 177L430 177L429 171M536 171L537 172L536 171M685.333 171.667L685.667 172.333L685.333 171.667M521 172L522 173L521 172M537.333 172.667L537.667 173.333L537.333 172.667M138.333 173.667L138.667 174.333L138.333 173.667M378 173L378 176L379 176L378 173M522 173L523 174L522 173M686 173L687 174L686 173M98.3333 174.667L98.6667 175.333L98.3333 174.667M523.333 174.667L523.667 175.333L523.333 174.667M538 174L539 175L538 174M137 175L138 176L137 175M363 175L363 178L364 178L363 175M445 175L445 178L446 178L445 175M475.333 175.667L475.667 176.333L475.333 175.667M539 175L540 176L539 175M687 175L688 176L687 175M97 176L97 179L98 179L97 176M136.333 176.667L136.667 177.333L136.333 176.667M490 176L490 180L491 180L490 176M524 176L525 177L524 176M688 176L689 177L688 176M379 177L380 178L379 177M525.333 177.667L525.667 178.333L525.333 177.667M135.333 178.667L135.667 179.333L135.333 178.667M407 178L407 179L422 179L407 178M430.333 178.667L430.667 179.333L430.333 178.667M446.333 178.667L446.667 179.333L446.333 178.667M474 178L475 179L474 178M689 178L690 179L689 178M96 179L96 182L97 182L96 179M364.333 179.667L364.667 180.333L364.333 179.667M380 179L381 180L380 179M405.333 179.667L405.667 180.333L405.333 179.667M422 179L423 180L422 179M473.333 179.667L473.667 180.333L473.333 179.667M526 179L527 180L526 179M690 179L691 180L690 179M134.333 180.667L134.667 181.333L134.333 180.667M381.333 180.667L381.667 181.333L381.333 180.667M447 180L448 181L447 180M489.333 180.667L489.667 181.333L489.333 180.667M527.333 180.667L527.667 181.333L527.333 180.667M691.333 180.667L691.667 181.333L691.333 180.667M404 181L405 182L404 181M421.333 181.667L421.667 182.333L421.333 181.667M431.333 181.667L431.667 182.333L431.333 181.667M448 181L449 182L448 181M472 181L473 182L472 181M95 182L95 185L96 185L95 182z"/>
<path style="fill:#fc9808; stroke:none;" d="M306 182L230 258L230 259L254 283L255 283L331 207L331 206L306 182z"/>
<path style="fill:#69a1a7; stroke:none;" d="M365.333 182.667L365.667 183.333L365.333 182.667M382 182L383 183L382 182M403 182L404 183L403 182M449 182L450 183L449 182M471 182L472 183L471 182M528 182L529 183L528 182M692 182L693 183L692 182M133 183L134 184L133 183M383 183L384 184L383 183M402 183L403 184L402 183M420.333 183.667L420.667 184.333L420.333 183.667M432 183L433 184L432 183M450 183L451 184L450 183M470 183L471 184L470 183M488 183L489 184L488 183M366.333 184.667L366.667 185.333L366.333 184.667M385 184L386 185L385 184M400.667 184.333L401.333 184.667L400.667 184.333M451 184L452 185L451 184M529 184L530 185L529 184M693 184L694 185L693 184M132 185L133 186L132 185M386.667 185.333L387.333 185.667L386.667 185.333M398.667 185.333L399.333 185.667L398.667 185.333M419.333 185.667L419.667 186.333L419.333 185.667M433 185L434 186L433 185M453.667 185.333L454.333 185.667L453.667 185.333M466.667 185.333L467.333 185.667L466.667 185.333M487 185L488 186L487 185M530 185L531 186L530 185M694 185L695 186L694 185M94 186L94 189L95 189L94 186M367 186L368 187L367 186M389 186L389 187L397 187L389 186M434.333 186.667L434.667 187.333L434.333 186.667M456 186L456 187L460 187L456 186M462 186L462 187L465 187L462 186M486.333 186.667L486.667 187.333L486.333 186.667M131.333 187.667L131.667 188.333L131.333 187.667M368.333 187.667L368.667 188.333L368.333 187.667M418.333 187.667L418.667 188.333L418.333 187.667M531 187L532 188L531 187M695 187L696 188L695 187M435 188L436 189L435 188M485 188L486 189L485 188M532 188L533 189L532 188M696 188L697 189L696 188M93 189L93 194L94 194L93 189M369 189L370 190L369 189M417 189L418 190L417 189M436 189L437 190L436 189M484 189L485 190L484 189M130.333 190.667L130.667 191.333L130.333 190.667M370 190L371 191L370 190M416 190L417 191L416 190M437 190L438 191L437 190M483 190L484 191L483 190M533 190L534 191L533 190M697 190L698 191L697 190M371 191L372 192L371 191M415 191L416 192L415 191M438 191L439 192L438 191M482 191L483 192L482 191M534 191L535 192L534 191M698 191L699 192L698 191M372 192L373 193L372 192M414 192L415 193L414 192M439 192L440 193L439 192M481 192L482 193L481 192M129 193L129 196L130 196L129 193M373 193L374 194L373 193M413 193L414 194L413 193M440 193L441 194L440 193M480 193L481 194L480 193M535 193L536 194L535 193M92 194L92 198L93 198L92 194M374 194L375 195L374 194M411.667 194.333L412.333 194.667L411.667 194.333M441 194L442 195L441 194M479 194L480 195L479 194M536.333 194.667L536.667 195.333L536.333 194.667M376 195L377 196L376 195M410 195L411 196L410 195M443 195L444 196L443 195M477 195L478 196L477 195M128 196L128 200L129 200L128 196M377.667 196.333L378.333 196.667L377.667 196.333M408.667 196.333L409.333 196.667L408.667 196.333M444.667 196.333L445.333 196.667L444.667 196.333M475.667 196.333L476.333 196.667L475.667 196.333M537 196L538 197L537 196M379.667 197.333L380.333 197.667L379.667 197.333M406.667 197.333L407.333 197.667L406.667 197.333M446.667 197.333L447.333 197.667L446.667 197.333M473.667 197.333L474.333 197.667L473.667 197.333M538 197L539 198L538 197M381 198L381 199L384 199L381 198M403 198L403 199L406 199L403 198M448 198L448 199L451 199L448 198M470 198L470 199L473 199L470 198M757 198L758 199L757 198M385 199L385 200L389 200L385 199M398 199L398 200L402 200L398 199M451 199L451 200L455 200L451 199M465 199L465 200L470 200L465 199M500 199L500 200L515 200L500 199M664 199L664 200L679 200L664 199M742 199L742 200L757 200L742 199M91 200L91 204L92 204L91 200M127 200L127 205L128 205L127 200M457 200L457 201L463 201L457 200M126 206L126 211L127 211L126 206M90 208L90 217L91 217L90 208M125 216L125 224L126 224L125 216M90 224L90 233L91 233L90 224M126 229L126 234L127 234L126 229M505 235L505 236L512 236L505 235M623 235L623 236L632 236L623 235M91 236L91 241L92 241L91 236M127 236L127 240L128 240L127 236M368 236L368 280L369.028 296.397L384 298L384 273L403 273L403 261L384 261L384 249C389.002 249 404.669 251.567 407.972 247.397C410.047 244.777 409 239.145 409 236L368 236M434 236L434 237L452 237L455 248C457.907 234.154 442.789 236 434 236M500 236L500 237L503 237L500 236z"/>
<path style="fill:#056e79; stroke:none;" d="M537 277C532.58 277 526.426 275.897 522.286 277.603C515.247 280.503 511.715 287.579 503 283.427C489.11 276.811 489.592 252.431 506 249.347C513.757 247.889 516.142 253.842 522.286 256.397C526.412 258.112 532.59 257 537 257C528.95 223.422 478.986 233.327 478.129 266C477.252 299.406 528.794 311.23 537 277z"/>
<path style="fill:#69a1a7; stroke:none;" d="M514 236L514 237L518 237L514 236M543 236C543 249.281 546.581 249 559 249L559 284L560.603 296.972L575 298L575 249L591 249L591 248L574 248L574 297L560 297L560 248L544 248L544 237L591 237C578.586 231.791 556.526 236 543 236M618.667 236.333L619.333 236.667L618.667 236.333z"/>
<path style="fill:#056e79; stroke:none;" d="M620 236.518C580.615 244.933 594.849 305.599 634 296.985C673.429 288.309 659.416 228.096 620 236.518z"/>
<path style="fill:#69a1a7; stroke:none;" d="M634 236L634 237L637 237L634 236M682 298L682 275L687 279L688 279C680.252 265.222 681 292.558 681 297L667 297L667 237L697 237C692.484 235.105 669.015 233.418 666.603 238.318C662.808 246.032 666 262.412 666 271C666 276.846 663.315 291.709 667.028 296.397C669.57 299.607 678.326 298 682 298M719 236L728 256L729 256L720 237L736 237L719 236M754 247L755 247C759.406 236.42 764.488 237 775 237L769 249L770 249L776 236C764.887 236 757.554 234.664 754 247z"/>
<path style="fill:#056e79; stroke:none;" d="M369 237L369 297L383 297C383 291.675 380.383 276.321 385.318 273.028C389.225 270.421 397.463 272 402 272L402 262C397.463 262 389.225 263.579 385.318 260.972C382.033 258.78 382.033 251.22 385.318 249.028C390.271 245.723 402.177 248 408 248L408 237L369 237M434 237L413 297C416.847 297 424.073 298.389 427.298 295.972C432.203 292.296 430.097 286.363 438.001 286.019C442.296 285.832 450.071 284.659 453.581 287.603C456.333 289.912 456.094 294.768 459.419 296.397C462.998 298.15 469.086 297 473 297L452 237L434 237z"/>
<path style="fill:#69a1a7; stroke:none;" d="M497 237L498 238L497 237M519.667 237.333L520.333 237.667L519.667 237.333z"/>
<path style="fill:#056e79; stroke:none;" d="M544 237L544 248L560 248L560 297L574 297L574 248L591 248L591 237L544 237z"/>
<path style="fill:#69a1a7; stroke:none;" d="M615.667 237.333L616.333 237.667L615.667 237.333M637.667 237.333L638.333 237.667L637.667 237.333z"/>
<path style="fill:#056e79; stroke:none;" d="M667 237L667 297L681 297C681 293.545 678.995 276.443 683.275 275.631C688.585 274.624 693.729 291.481 696.789 294.682C700.597 298.667 708.961 297 714 297C711.453 292.165 700.894 279.5 702.447 274.209C704.948 265.683 715.501 264.679 713.671 253C710.346 231.784 682.31 237 667 237z"/>
<path style="fill:#69a1a7; stroke:none;" d="M699.667 237.333L700.333 237.667L699.667 237.333z"/>
<path style="fill:#056e79; stroke:none;" d="M720 237L739.363 277L740 297L754 297L754.637 278L775 237L760.39 237.603L747 262L736 237L720 237z"/>
<path style="fill:#69a1a7; stroke:none;" d="M433.333 238.667L433.667 239.333L433.333 238.667M494.667 238.333L495.333 238.667L494.667 238.333M521.667 238.333L522.333 238.667L521.667 238.333M590 238L591 239L590 238M613 238L614 239L613 238M640.667 238.333L641.333 238.667L640.667 238.333M702.667 238.333L703.333 238.667L702.667 238.333M736.333 238.667L736.667 239.333L736.333 238.667M492.667 239.333L493.333 239.667L492.667 239.333M523.667 239.333L524.333 239.667L523.667 239.333M611 239L612 240L611 239M642 239L643 240L642 239M704.667 239.333L705.333 239.667L704.667 239.333M491 240L492 241L491 240M525.667 240.333L526.333 240.667L525.667 240.333M590 240L591 241L590 240M609.667 240.333L610.333 240.667L609.667 240.333M644 240L645 241L644 240M706 240L707 241L706 240M737.333 240.667L737.667 241.333L737.333 240.667M128 241L128 244L129 244L128 241M432.333 241.667L432.667 242.333L432.333 241.667M489.667 241.333L490.333 241.667L489.667 241.333M527 241L528 242L527 241M608 241L609 242L608 241M645.667 241.333L646.333 241.667L645.667 241.333M707 241L710 244L707 241M92 242L92 246L93 246L92 242M488 242L489 243L488 242M528 242L529 243L528 242M590 242L590 247L591 247L590 242M606.667 242.333L607.333 242.667L606.667 242.333M647 242L648 243L647 242M738.333 242.667L738.667 243.333L738.333 242.667M487 243L488 244L487 243M529 243L530 244L529 243M605 243L606 244L605 243M648 243L649 244L648 243M431.333 244.667L431.667 245.333L431.333 244.667M486 244L487 245L486 244M530 244L531 245L530 244M604 244L605 245L604 244M649 244L650 245L649 244M710 244L711 245L710 244M739.333 244.667L739.667 245.333L739.333 244.667M129 245L129 248L130 248L129 245M485 245L486 246L485 245M531 245L532 246L531 245M603 245L604 246L603 245M650 245L651 246L650 245M711 245L712 246L711 245M430.333 246.667L430.667 247.333L430.333 246.667M484 246L485 247L484 246M532 246L533 247L532 246M651 246L652 247L651 246M740.333 246.667L740.667 247.333L740.333 246.667M93 247L93 251L94 251L93 247M483.333 247.667L483.667 248.333L483.333 247.667M533.333 247.667L533.667 248.333L533.333 247.667M602 247L603 248L602 247M652.333 247.667L652.667 248.333L652.333 247.667M712.333 247.667L712.667 248.333L712.333 247.667M130 248L130 251L131 251L130 248M601 248L602 249L601 248M683 264L682 249L692 249C681.991 244.8 675.947 257.837 683 264M753.333 248.667L753.667 249.333L753.333 248.667M429.333 249.667L429.667 250.333L429.333 249.667M456.333 249.667L456.667 250.333L456.333 249.667M482 249L483 250L482 249M504 249L504 250L513 250L504 249M534 249L535 250L534 249M600 249L601 250L600 249M622 249L622 250C630.408 250.001 636.758 250.896 641 259C642.298 249.26 628.401 249 622 249M653 249L654 250L653 249z"/>
<path style="fill:#feffff; stroke:none;" d="M682 249C682 252.565 680.694 259.449 683.028 262.397C690.518 271.854 708.84 251.673 690.999 249.189C688.054 248.779 684.967 249 682 249z"/>
<path style="fill:#69a1a7; stroke:none;" d="M693 249L693 250L696 250L693 249M741 249L742 250L741 249M501 250L501 251L504 251L501 250M513 250L513 251L516 251L513 250M535.333 250.667L535.667 251.333L535.333 250.667M618 252L621 251L618 252z"/>
<path style="fill:#feffff; stroke:none;" d="M621.004 250.653C602.464 256.538 611.959 289.177 632 283.427C652.131 277.652 642.609 243.794 621.004 250.653z"/>
<path style="fill:#69a1a7; stroke:none;" d="M654.333 250.667L654.667 251.333L654.333 250.667M696 250L697 251L696 250M713.333 250.667L713.667 251.333L713.333 250.667M752.333 250.667L752.667 251.333L752.333 250.667M768 250L769 251L768 250M131.333 251.667L131.667 252.333L131.333 251.667M457 251L457 254L458 254L457 251M481 251L482 252L481 251M500 251L501 252L500 251M516 251L517 252L516 251M599 251L600 252L599 251M697 251L698 252L697 251M742 251L743 252L742 251M94 252L94 255L95 255L94 252M428.333 252.667L428.667 253.333L428.333 252.667M499 252L500 253L499 252M517 252L518 253L517 252M536 252L536 255L537 255L536 252M616 252L617 253L616 252M655.333 252.667L655.667 253.333L655.333 252.667M698.333 252.667L698.667 253.333L698.333 252.667M751.333 252.667L751.667 253.333L751.333 252.667M767 252L768 253L767 252M480.333 253.667L480.667 254.333L480.333 253.667M497 253L497 255L499 253L497 253M518 253L519 254L518 253M598 253L599 254L598 253M615 253L616 254L615 253M743.333 253.667L743.667 254.333L743.333 253.667M132.333 254.667L132.667 255.333L132.333 254.667M427 254L427 257L428 257L427 254M442.667 254.333L443.333 254.667L442.667 254.333M458.333 254.667L458.667 255.333L458.333 254.667M519 254L520 255L519 254M614.333 254.667L614.667 255.333L614.333 254.667M656 254L656 257L657 257L656 254M750.333 254.667L750.667 255.333L750.333 254.667M766 254L767 255L766 254M95 255L95 258L96 258L95 255z"/>
<path style="fill:#feffff; stroke:none;" d="M442 255L436 275L450 275L444 255L442 255z"/>
<path style="fill:#69a1a7; stroke:none;" d="M479 255L479 258L480 258L479 255M496 255L497 256L496 255M520 255L521 256L520 255M537.333 255.667L537.667 256.333L537.333 255.667M597.333 255.667L597.667 256.333L597.333 255.667M744.333 255.667L744.667 256.333L744.333 255.667M133.333 256.667L133.667 257.333L133.333 256.667M444 256L444 259L445 259L444 256M495.333 256.667L495.667 257.333L495.333 256.667M613 256L614 257L613 256M765 256L766 257L765 256M441 257L442 258L441 257M459.333 257.667L459.667 258.333L459.333 257.667M522 257L523 258L522 257M524 257L525 258L524 257M526 257L526 258L537 258L526 257M612 257L612 260L613 260L612 257M657 257L657 261L658 261L657 257M729 257L730 258L729 257M745.333 257.667L745.667 258.333L745.333 257.667M749 257L750 258L749 257M764.333 257.667L764.667 258.333L764.333 257.667M134.333 258.667L134.667 259.333L134.333 258.667M426.333 258.667L426.667 259.333L426.333 258.667M494.333 258.667L494.667 259.333L494.333 258.667M596 258L596 262L597 262L596 258M698.333 258.667L698.667 259.333L698.333 258.667M96.3333 259.667L96.6667 260.333L96.3333 259.667M440.333 259.667L440.667 260.333L440.333 259.667M445 259L445 262L446 262L445 259M478 259L478 263L479 263L478 259M713 259L713 262L714 262L713 259M730 259L731 260L730 259M746 259L748 262L746 259M748 259L749 260L748 259M763.333 259.667L763.667 260.333L763.333 259.667M135.333 260.667L135.667 261.333L135.333 260.667M425.333 260.667L425.667 261.333L425.333 260.667M460.333 260.667L460.667 261.333L460.333 260.667M611 260L611 264L612 264L611 260M642 260L642 263L643 263L642 260M493 261L493 264L494 264L493 261M697 261L698 262L697 261M731 261L732 262L731 261M762.333 261.667L762.667 262.333L762.333 261.667M97.3333 262.667L97.6667 263.333L97.3333 262.667M136.333 262.667L136.667 263.333L136.333 262.667M439 262L439 265L440 265L439 262M446 262L446 265L447 265L446 262M658 262L658 271L659 271L658 262M696 262L697 263L696 262M424.333 263.667L424.667 264.333L424.333 263.667M461.333 263.667L461.667 264.333L461.333 263.667M595 263L595 271L596 271L595 263M693.667 263.333L694.333 263.667L693.667 263.333M712 263L713 264L712 263M732 263L733 264L732 263M761.333 263.667L761.667 264.333L761.333 263.667M137.333 264.667L137.667 265.333L137.333 264.667M733.333 264.667L733.667 265.333L733.333 264.667M98.3333 265.667L98.6667 266.333L98.3333 265.667M438 265L438 268L439 268L438 265M447 265L447 268L448 268L447 265M462.333 265.667L462.667 266.333L462.333 265.667M643 265L643 268L644 268L643 265M711 265L712 266L711 265M760.333 265.667L760.667 266.333L760.333 265.667M138.333 266.667L138.667 267.333L138.333 266.667M423.333 266.667L423.667 267.333L423.333 266.667M710 266L711 267L710 266M734.333 266.667L734.667 267.333L734.333 266.667M99.3333 267.667L99.6667 268.333L99.3333 267.667M709 267L707 270L709 267M759.333 267.667L759.667 268.333L759.333 267.667M139 268L140 269L139 268M269 298L270 298C272.259 289.941 284.09 281.83 290 276.002C291.996 274.033 294.772 270.359 298 271.207C306.353 273.4 313.863 286.973 321 292L321 293C312.554 298.949 299.951 320.301 289 318L289 319C298.766 322.964 315.405 299.595 322 293C317.521 286.642 305.718 271.27 298 269.346C294.417 268.452 291.195 272.822 289 275.001C283.01 280.947 270.447 289.527 269 298M422 268L422 271L423 271L422 268M437 268L437 271L438 271L437 268M448.333 268.667L448.667 269.333L448.333 268.667M463.333 268.667L463.667 269.333L463.333 268.667M735.333 268.667L735.667 269.333L735.333 268.667M140.333 269.667L140.667 270.333L140.333 269.667z"/>
<path style="fill:#056e79; stroke:none;" d="M321 293C316.302 286.331 309.822 280.705 304 275.005C301.977 273.024 299.238 269.539 296 270.346C290.58 271.697 284.832 280.168 281 284C278.017 286.983 270.335 292.27 270.342 296.91C270.345 299.307 272.889 301.174 274.439 302.665C278.164 306.247 288.47 320.55 294.015 318.744C303.467 315.665 314.001 299.999 321 293z"/>
<path style="fill:#69a1a7; stroke:none;" d="M758 269L759 270L758 269M100 270L101 271L100 270M478 270L478 275L479 275L478 270M493 270L493 273L494 273L493 270M611 270L611 274L612 274L611 270M706 270L707 271L706 270M736.333 270.667L736.667 271.333L736.333 270.667M141 271L142 272L141 271M421.333 271.667L421.667 272.333L421.333 271.667M436 271L436 274L437 274L436 271M449.333 271.667L449.667 272.333L449.333 271.667M464.333 271.667L464.667 272.333L464.333 271.667M596 271L596 276L597 276L596 271M642 271L642 274L643 274L642 271M704.667 271.333L705.333 271.667L704.667 271.333M757 271L758 272L757 271M101.333 272.667L101.667 273.333L101.333 272.667M142.333 272.667L142.667 273.333L142.333 272.667M702.667 272.333L703.333 272.667L702.667 272.333M737.333 272.667L737.667 273.333L737.333 272.667M465 273L465 276L466 276L465 273M657 273L657 277L658 277L657 273M701 273L701 276L702 276L701 273M756.333 273.667L756.667 274.333L756.333 273.667M102.333 274.667L102.667 275.333L102.333 274.667M143 274L144 275L143 274M420.333 274.667L420.667 275.333L420.333 274.667M435 274L436 275L435 274M450 274L451 275L450 274M494.333 274.667L494.667 275.333L494.333 274.667M612.333 274.667L612.667 275.333L612.333 274.667M738.333 274.667L738.667 275.333L738.333 274.667M144 275L145 276L144 275M436 275L436 276L450 276L436 275M641.333 275.667L641.667 276.333L641.333 275.667M755.333 275.667L755.667 276.333L755.333 275.667M103.333 276.667L103.667 277.333L103.333 276.667M145.333 276.667L145.667 277.333L145.333 276.667M466.333 276.667L466.667 277.333L466.333 276.667M479 276L479 279L480 279L479 276M495.333 276.667L495.667 277.333L495.333 276.667M521 276L521 277L537 277L521 276M613.333 276.667L613.667 277.333L613.333 276.667M702.333 276.667L702.667 277.333L702.333 276.667M739 276L739 297L740 297L739 276M419.333 277.667L419.667 278.333L419.333 277.667M520.333 277.667L520.667 278.333L520.333 277.667M537.333 277.667L537.667 278.333L537.333 277.667M597.333 277.667L597.667 278.333L597.333 277.667M640 277L641 278L640 277M656.333 277.667L656.667 278.333L656.333 277.667M754 277L754 297L740 297L740 298L755 298L754 277M104.333 278.667L104.667 279.333L104.333 278.667M146 278L147 279L146 278M496 278L497 279L496 278M614 278L615 279L614 278M639 278L640 279L639 278M703 278L704 279L703 278M147 279L148 280L147 279M418 279L418 282L419 282L418 279M467.333 279.667L467.667 280.333L467.333 279.667M480.333 279.667L480.667 280.333L480.333 279.667M497 279L498 280L497 279M519 279L520 280L519 279M536.333 279.667L536.667 280.333L536.333 279.667M598.333 279.667L598.667 280.333L598.333 279.667M615 279L616 280L615 279M638 279L637 281L639 281L638 279M704.333 279.667L704.667 280.333L704.333 279.667M105.333 280.667L105.667 281.333L105.333 280.667M148 280L149 281L148 280M498 280L499 281L498 280M518 280L519 281L518 280M616 280L617 281L616 280M655.333 280.667L655.667 281.333L655.333 280.667M688 280L689 281L688 280M149 281L150 282L149 281M481.333 281.667L481.667 282.333L481.333 281.667M499 281L500 282L499 281M517 281L518 282L517 281M617 281L618 282L617 281M636 281L637 282L636 281M705 281L706 282L705 281M106 282L107 283L106 282M150 282L151 283L150 282M417.333 282.667L417.667 283.333L417.333 282.667M468.333 282.667L468.667 283.333L468.333 282.667M500.667 282.333L501.333 282.667L500.667 282.333M515.667 282.333L516.333 282.667L515.667 282.333M535 282L536 283L535 282M599 282L600 283L599 282M618.667 282.333L619.333 282.667L618.667 282.333M635 282L636 283L635 282M654 282L655 283L654 282M689 282L690 283L689 282M151 283L152 284L151 283M482.333 283.667L482.667 284.333L482.333 283.667M502.667 283.333L503.333 283.667L502.667 283.333M513.667 283.333L514.333 283.667L513.667 283.333M600.333 283.667L600.667 284.333L600.333 283.667M620.667 283.333L621.333 283.667L620.667 283.333M632.667 283.333L633.333 283.667L632.667 283.333M653.333 283.667L653.667 284.333L653.333 283.667M690.333 283.667L690.667 284.333L690.333 283.667M706 283L707 284L706 283M107 284L108 285L107 284M152 284L153 285L152 284M505 284L505 285L512 285L505 284M534 284L535 285L534 284M623 284L623 285L632 285L623 284M108.333 285.667L108.667 286.333L108.333 285.667M153 285L154 286L153 285M416.333 285.667L416.667 286.333L416.333 285.667M469.333 285.667L469.667 286.333L469.333 285.667M483 285L484 286L483 285M533.333 285.667L533.667 286.333L533.333 285.667M601 285L602 286L601 285M652 285L653 286L652 285M691.333 285.667L691.667 286.333L691.333 285.667M707 285L708 286L707 285M154 286L155 287L154 286M432 286L432 287L454 287L432 286M484.333 286.667L484.667 287.333L484.333 286.667M602 286L603 287L602 286M651.333 286.667L651.667 287.333L651.333 286.667M708.333 286.667L708.667 287.333L708.333 286.667M109 287L110 288L109 287M155 287L156 288L155 287M431 287L432 288L431 287M454.333 287.667L454.667 288.333L454.333 287.667M470.333 287.667L470.667 288.333L470.333 287.667M532 287L533 288L532 287M603 287L604 288L603 287M692.333 287.667L692.667 288.333L692.333 287.667M156 288L157 289L156 288M415.333 288.667L415.667 289.333L415.333 288.667M485 288L486 289L485 288M531 288L532 289L531 288M604 288L605 289L604 288M650 288L651 289L650 288M709 288L710 289L709 288M110 289L111 290L110 289M157 289L158 290L157 289M430.333 289.667L430.667 290.333L430.333 289.667M455 289L455 292L456 292L455 289M486 289L487 290L486 289M530 289L531 290L530 289M605 289L606 290L605 289M649 289L650 290L649 289M693.333 289.667L693.667 290.333L693.333 289.667M111.333 290.667L111.667 291.333L111.333 290.667M158 290L159 291L158 290M414 290L414 293L415 293L414 290M471.333 290.667L471.667 291.333L471.333 290.667M487 290L488 291L487 290M529 290L530 291L529 290M606 290L607 291L606 290M648 290L649 291L648 290M710 290L711 291L710 290M159 291L160 292L159 291M488.667 291.333L489.333 291.667L488.667 291.333M528 291L529 292L528 291M607 291L608 292L607 291M646.667 291.333L647.333 291.667L646.667 291.333M694 291L695 292L694 291M711.333 291.667L711.667 292.333L711.333 291.667M112 292L113 293L112 292M161 292L162 293L161 292M429.333 292.667L429.667 293.333L429.333 292.667M456.333 292.667L456.667 293.333L456.333 292.667M490 292L491 293L490 292M527 292L528 293L527 292M608 292L609 293L608 292M645 292L646 293L645 292M113 293L114 294L113 293M162 293L163 294L162 293M413.333 293.667L413.667 294.333L413.333 293.667M472.333 293.667L472.667 294.333L472.333 293.667M491.667 293.333L492.333 293.667L491.667 293.333M525 293L526 294L525 293M609.667 293.333L610.333 293.667L609.667 293.333M643.667 293.333L644.333 293.667L643.667 293.333M695 293L696 294L695 293M712.333 293.667L712.667 294.333L712.333 293.667M114.333 294.667L114.667 295.333L114.333 294.667M163.667 294.333L164.333 294.667L163.667 294.333M493.667 294.333L494.333 294.667L493.667 294.333M523.667 294.333L524.333 294.667L523.667 294.333M611.667 294.333L612.333 294.667L611.667 294.333M641.667 294.333L642.333 294.667L641.667 294.333M696.333 294.667L696.667 295.333L696.333 294.667M165 295L166 296L165 295M428.333 295.667L428.667 296.333L428.333 295.667M457.333 295.667L457.667 296.333L457.333 295.667M473 295L458 297L458 298C461.087 298 474.78 299.722 473 295M495.667 295.333L496.333 295.667L495.667 295.333M521.667 295.333L522.333 295.667L521.667 295.333M613.667 295.333L614.333 295.667L613.667 295.333M639.667 295.333L640.333 295.667L639.667 295.333M713 295L714 296L713 295M115 296L116 297L115 296M166 296L167 297L166 296M412 296L428 298L428 297L412 296M497 296L497 297L500 297L497 296M517 296L517 297L520 297L517 296M616.667 296.333L617.333 296.667L616.667 296.333M636 296L636 297L639 297L636 296M697 296L698 297L697 296M116 297L117 298L116 297M168 297L169 298L168 297M501 297L501 298L506 298L501 297M512 297L512 298L517 298L512 297M619 297L619 298L623 298L619 297M631 297L631 298L636 298L631 297M698 297L698 298L714 298L698 297M169.667 298.333L170.333 298.667L169.667 298.333M171 299L172 300L171 299M118 300L119 301L118 300M173 300L174 301L173 300M272 300L274 303L272 300M119 301L120 302L119 301M174.667 301.333L175.333 301.667L174.667 301.333M120 302L121 303L120 302M176.667 302.333L177.333 302.667L176.667 302.333M258 302L258 303L261 303L258 302M121 303L122 304L121 303M178.667 303.333L179.333 303.667L178.667 303.333M256.667 303.333L257.333 303.667L256.667 303.333M261 303L262 304L261 303M275 303L276 304L275 303M122 304L123 305L122 304M181.667 304.333L182.333 304.667L181.667 304.333M254.667 304.333L255.333 304.667L254.667 304.333M262 304L263 305L262 304M276 304L277 305L276 304M183.667 305.333L184.333 305.667L183.667 305.333M252.667 305.333L253.333 305.667L252.667 305.333M263 305L264 306L263 305M277 305L278 306L277 305M186.667 306.333L187.333 306.667L186.667 306.333M249.667 306.333L250.333 306.667L249.667 306.333M264 306L265 307L264 306M278 306L279 307L278 306M124 307L125 308L124 307M189.667 307.333L190.333 307.667L189.667 307.333M246.667 307.333L247.333 307.667L246.667 307.333M265 307L266 308L265 307M279 307L280 308L279 307M125 308L126 309L125 308M192.667 308.333L193.333 308.667L192.667 308.333M242 308L242 309L245 309L242 308M266 308L267 309L266 308M280 308L281 309L280 308M126 309L127 310L126 309M196 309L196 310L199 310L196 309M238 309L238 310L241 310L238 309M267 309L268 310L267 309M127 310L128 311L127 310M200 310L200 311L205 311L200 310M232 310L232 311L236 311L232 310M268 310L269 311L268 310M281 310L284 312L281 310M128 311L129 312L128 311M206 311L206 312L229 312L206 311M269 311L270 312L269 311M129 312L130 313L129 312M270 312L271 313L270 312M284 312L285 313L284 312M130 313L131 314L130 313M271 313L272 314L271 313M285 313L286 314L285 313M131.667 314.333L132.333 314.667L131.667 314.333M272 314L273 315L272 314M286 314L287 315L286 314M133 315L134 316L133 315M273 315L274 316L273 315M287 315L288 316L287 315M134 316L135 317L134 316M274 316L275 317L274 316M288 316L289 317L288 316M135 317L136 318L135 317M275 317L276 318L275 317M136 318L137 319L136 318M276 318L277 319L276 318M137.667 319.333L138.333 319.667L137.667 319.333M277 319L278 320L277 319M139 320L140 321L139 320M278 320L279 321L278 320M140 321L141 322L140 321M279 321L280 322L279 321M141 322L142 323L141 322M280 322L281 323L280 322M143 323L144 324L143 323M281 323L282 324L281 323M144 324L145 325L144 324M282 324L283 325L282 324M146 325L147 326L146 325M283 325L284 326L283 325M147 326L148 327L147 326M284 326L285 327L284 326M148.667 327.333L149.333 327.667L148.667 327.333M283 327L284 328L283 327M150 328L151 329L150 328M282 328L283 329L282 328M152 329L153 330L152 329M280.667 329.333L281.333 329.667L280.667 329.333M153.667 330.333L154.333 330.667L153.667 330.333M279 330L280 331L279 330M155.667 331.333L156.333 331.667L155.667 331.333M277.667 331.333L278.333 331.667L277.667 331.333M157.667 332.333L158.333 332.667L157.667 332.333M276 332L277 333L276 332M159 333L160 334L159 333M274 333L275 334L274 333M161 334L162 335L161 334M273 334L274 335L273 334M163.667 335.333L164.333 335.667L163.667 335.333M271 335L272 336L271 335M165.667 336.333L166.333 336.667L165.667 336.333M269 336L270 337L269 336M167.667 337.333L168.333 337.667L167.667 337.333M267.667 337.333L268.333 337.667L267.667 337.333M170.667 338.333L171.333 338.667L170.667 338.333M265 338L266 339L265 338M172 339L172 340L175 340L172 339M262.667 339.333L263.333 339.667L262.667 339.333M175.667 340.333L176.333 340.667L175.667 340.333M260.667 340.333L261.333 340.667L260.667 340.333M178 341L178 342L181 342L178 341M257.667 341.333L258.333 341.667L257.667 341.333M182.667 342.333L183.333 342.667L182.667 342.333M254.667 342.333L255.333 342.667L254.667 342.333M185 343L185 344L188 344L185 343M251.667 343.333L252.333 343.667L251.667 343.333M189 344L189 345L193 345L189 344M246 344L246 345L249 345L246 344M194 345L194 346L199 346L194 345M240 345L240 346L245 346L240 345M200 346L200 347L208 347L200 346M229 346L229 347L238 347L229 346M210 347L210 348L225 348L210 347z"/>
</svg>
